<?xml version="1.0" encoding="utf-8"?>
<!-- Generator: Adobe Illustrator 19.0.0, SVG Export Plug-In . SVG Version: 6.00 Build 0)  -->
<svg version="1.1" id="Warstwa_1" xmlns="http://www.w3.org/2000/svg" xmlns:xlink="http://www.w3.org/1999/xlink" x="0px" y="0px"
	 viewBox="-41 164.9 512 512" style="enable-background:new -41 164.9 512 512;" xml:space="preserve">
<style type="text/css">
	.st0{fill:#FFFFFF;}
</style>
<path class="st0" d="M159.4,383.5C149,316.9,192,245.9,256.9,226.1c5.6-6.5,10.3-13,14.5-18.3c6-10.8,10-18,10-18s-0.1,8.2-0.3,20.6
	c-1.2,5.7-4,13.1-9.1,18.6C230,259.9,190,303.9,189,358.9c27-61,99-98,164.2-85.9c7.5-2.3,15-6.1,21.3-8.6
	c10.6-6.3,17.6-10.6,17.6-10.6s-4.2,7.1-10.6,17.6c-3.9,4.3-9.1,9.7-15.8,12.6C314,288.9,257,303.9,228,351.9c54-40,134-30,185,10.2
	c8.3,1.3,15.8,1.8,22.5,2.7c12.3-0.2,20.6-0.3,20.6-0.3s-7.2,4-18,10c-5.5,1.8-11.9,4.8-19.5,4.9c-2.5-0.5-5.5,0.5-7.5-0.5
	c-45-22-99-36-146-13c71-8,131,43,154.6,106.2c20.2,11.2,36.4,20.2,36.4,20.2s-8.2-0.1-20.6-0.3c-5.9-0.8-12.8-1.6-19.4-5.7
	c-5-2.4-8-6.4-10-9.4c-25-44-67-72-115-81c62,33,91,103,79.7,171.4c11.9,19.8,21.4,35.7,21.4,35.7s-7.1-4.2-17.6-10.6
	c-4.7-3.6-10.3-7.8-14.1-14.5c-3.8-6.8-6.8-17.1-5.5-32.1C353,503.9,330,463.9,298,437.9c25,44,35,102,7.6,147.5
	c-12.3,17.2-20.2,29.8-24.9,39.9c0.4,23.1,0.7,41.6,0.7,41.6s-4-7.2-10-18c-2.3-5.5-5.1-11.9-5-19.7c0-7.8,2.7-17.6,11.2-29.9
	c22.4-38.4,17.4-84.4,4.4-124.4c1,52-19,108-66.2,133.7c-19.6,9-33.9,15.4-42,21.9c-11.2,20.2-20.2,36.4-20.2,36.4s0.1-8.2,0.3-20.6
	c0.8-5.9,1.6-12.8,5.7-19.6c4.1-6.8,11.5-13.9,25.5-20C224,585.9,245,541.9,249,498.9c-25,57-87,98-149.5,83
	c-8.5-0.8-15.7-1.2-20.9-0.4C58.8,593.5,42.9,603,42.9,603s9.5-15.9,21.4-35.7c10.4-0.3,21.7-1.6,38,0.2
	c43.7-0.6,84.7-27.6,107.7-64.6c-43,39-111,39-160.5,10.9c-9.5-6.1-18.7-12.5-27.3-19.3c-8.4-1.2-15.9-1.7-22.6-2.6
	c-12.3,0.2-20.6,0.3-20.6,0.3s7.2-4,18-10c5.6-1.8,12.1-4.3,20.1-4.1c4.9,0.7,10.9,1.4,14.2,4.6C73,511.9,131,513.9,175,487.9
	c-69,15-139-34-159.8-99.3c-6.7-5.5-12.9-9.9-18.2-14.1c-10.8-6-18-10-18-10s8.2,0.1,20.6,0.3c5.7,1.3,12.4,3.3,18.9,8.4
	C48,417.9,94,460.9,152,456.9c-66-21-110-97-89.9-163.8c-2.7-8-6.1-15.3-8.6-21.6c-6.3-10.6-10.6-17.6-10.6-17.6s7.1,4.2,17.6,10.6
	c4.3,4,9.5,9.8,12.2,16.6C70,335.9,97,391.9,145,419.9c-42-53-44-137,5.4-186.2c1.6-8.8,2.5-16.5,3.5-23.2
	c-0.2-12.3-0.3-20.6-0.3-20.6s4,7.2,10,18c1.8,5.6,2.5,12.5,0.7,21.1C145,268.9,132,314.9,148,357.6
	C154.3,374.6,159.4,383.5,159.4,383.5z"/>
</svg>
